# 3ds Max Wavefront OBJ Exporter v0.99 - (c)2007 guruware
# File Created: 09.06.2025 15:52:07

mtllib bunker.mtl

#
# object Box001
#

v  68.1019 -2.7422 27.8059
v  54.4375 13.8828 27.8059
v  54.4375 13.8828 53.8750
v  68.1019 -2.7422 67.5394
v  28.3684 13.8828 27.8059
v  28.3684 13.8828 53.8750
v  28.3684 -2.7422 67.5394
v  28.3684 -2.7422 27.8059
v  28.3684 13.8828 1.8295
v  1.7005 13.8828 1.8295
v  1.7005 13.8828 27.8059
v  90.6111 -2.7422 27.8059
v  90.6111 -2.7422 1.8295
v  57.0012 13.8828 1.8295
v  57.0012 13.8828 27.8059
v  54.4375 13.8828 1.8295
v  28.3684 13.8828 58.8901
v  28.3684 -2.7422 88.4033
v  1.7005 13.8828 53.8750
v  1.7005 13.8828 58.8901
v  68.1019 -2.7422 1.8295
v  1.7005 -2.7422 67.5394
v  1.7005 -2.7422 27.8059
v  1.7005 -2.7422 88.4033
v  -64.7009 -2.7422 27.8059
v  -64.7009 -2.7422 67.5394
v  -51.0366 13.8828 53.8750
v  -51.0366 13.8828 27.8059
v  -24.9675 13.8828 53.8750
v  -24.9675 13.8828 27.8059
v  -24.9675 -2.7422 67.5394
v  -24.9675 -2.7422 27.8059
v  -24.9675 13.8828 1.8295
v  -53.6249 13.8828 1.8295
v  -87.2102 -2.7422 1.8295
v  -87.2102 -2.7422 27.8059
v  -53.6249 13.8828 27.8059
v  -51.0366 13.8828 1.8295
v  -24.9675 -2.7422 88.4033
v  -24.9675 13.8828 58.8901
v  -64.7009 -2.7422 1.8295
v  1.7005 -2.7422 1.8295
v  28.3684 -2.7422 1.8295
v  -24.9675 -2.7422 1.8295
v  68.1019 -2.7422 -24.1470
v  68.1019 -2.7422 -63.8804
v  54.4375 13.8828 -50.2160
v  54.4375 13.8828 -24.1470
v  28.3684 13.8828 -50.2160
v  28.3684 13.8828 -24.1470
v  28.3684 -2.7422 -63.8804
v  28.3684 -2.7422 -24.1470
v  1.7005 13.8828 -24.1470
v  90.6111 -2.7422 -24.1470
v  57.0012 13.8828 -24.1470
v  28.3684 -2.7422 -84.7443
v  28.3684 13.8828 -53.4596
v  1.7005 13.8828 -50.2160
v  1.7005 13.8828 -53.4596
v  1.7005 -2.7422 -24.1470
v  1.7005 -2.7422 -63.8804
v  1.7005 -2.7422 -84.7443
v  -64.7009 -2.7422 -24.1470
v  -51.0366 13.8828 -24.1470
v  -51.0366 13.8828 -50.2160
v  -64.7009 -2.7422 -63.8804
v  -24.9675 13.8828 -24.1470
v  -24.9675 13.8828 -50.2160
v  -24.9675 -2.7422 -63.8804
v  -24.9675 -2.7422 -24.1470
v  -53.6249 13.8828 -24.1470
v  -87.2102 -2.7422 -24.1470
v  -24.9675 13.8828 -53.4596
v  -24.9675 -2.7422 -84.7443
v  49.8616 9.4341 2.3473
v  35.0648 9.4341 -33.3753
v  27.5607 24.0306 -25.8712
v  39.2492 24.0306 2.3473
v  39.7293 11.9375 -36.7209
v  1.5935 11.9375 -52.5173
v  1.5935 28.2585 -40.6511
v  31.3386 28.2585 -28.3302
v  2.5261 9.4341 -46.8533
v  -33.1966 9.4341 -32.0565
v  -25.6925 24.0306 -24.5524
v  2.5261 24.0306 -36.2409
v  -36.5422 11.9375 -36.7209
v  -52.3386 11.9375 1.4148
v  -40.4723 28.2585 1.4148
v  -28.1515 28.2585 -28.3302
v  -46.6746 9.4341 0.4822
v  -31.8778 9.4341 36.2049
v  -24.3736 24.0306 28.7008
v  -36.0621 24.0306 0.4822
v  -36.5422 11.9375 39.5505
v  1.5935 11.9375 55.3469
v  1.5935 28.2585 43.4806
v  -28.1515 28.2585 31.1598
v  0.6610 9.4341 49.6829
v  36.3836 9.4341 34.8861
v  28.8795 24.0306 27.3820
v  0.6610 24.0306 39.0704
v  39.7293 11.9375 39.5505
v  55.5256 11.9375 1.4148
v  43.6594 28.2585 1.4148
v  31.3386 28.2585 31.1598
v  21.4530 39.1682 -18.4447
v  29.6791 39.1682 1.4148
v  1.5935 39.1682 -26.6708
v  -18.2660 39.1682 -18.4447
v  -26.4920 39.1682 1.4148
v  -18.2660 39.1682 21.2743
v  1.5935 39.1682 29.5004
v  21.4530 39.1682 21.2743
v  8.0555 46.3387 -5.0472
v  10.7322 46.3387 1.4148
v  1.5935 46.3387 -7.7239
v  -4.8685 46.3387 -5.0472
v  -7.5452 46.3387 1.4148
v  -4.8685 46.3387 7.8768
v  1.5935 46.3387 10.5535
v  8.0555 46.3387 7.8768
# 122 vertices

vn 0.7725 0.6350 -0.0000
vn 0.0000 1.0000 -0.0000
vn 0.0000 0.6350 0.7725
vn 0.0000 -1.0000 -0.0000
vn 0.4434 0.8963 -0.0000
vn 1.0000 0.0000 -0.0000
vn 0.0000 0.0000 1.0000
vn -0.0000 0.8713 0.4908
vn 0.0000 0.8713 0.4908
vn -0.7725 0.6350 -0.0000
vn -0.4436 0.8962 -0.0000
vn -1.0000 0.0000 -0.0000
vn 0.0000 0.6350 -0.7725
vn 0.0000 0.0000 -1.0000
vn -0.0000 0.8831 -0.4693
vn 0.0000 0.8831 -0.4693
vn 0.7669 0.5576 -0.3177
vn 0.3177 0.5576 -0.7669
vn -0.3177 0.5576 -0.7669
vn -0.7669 0.5576 -0.3177
vn -0.7669 0.5576 0.3177
vn -0.3177 0.5576 0.7669
vn 0.3177 0.5576 0.7669
vn 0.7669 0.5576 0.3177
vn 0.5962 0.7639 -0.2469
vn 0.2469 0.7639 -0.5962
vn -0.2469 0.7639 -0.5962
vn -0.5962 0.7639 -0.2469
vn -0.5962 0.7639 0.2469
vn -0.2469 0.7639 0.5962
vn 0.2469 0.7639 0.5962
vn 0.5962 0.7639 0.2469
vn 0.3502 0.9254 -0.1451
vn 0.1451 0.9254 -0.3502
vn -0.1451 0.9254 -0.3502
vn -0.3502 0.9254 -0.1451
vn -0.3502 0.9254 0.1451
vn -0.1451 0.9254 0.3502
vn 0.1451 0.9254 0.3502
vn 0.3502 0.9254 0.1451
vn 0.6118 -0.0895 0.7859
vn 0.6378 -0.7235 -0.2642
vn -0.1232 -0.0895 -0.9883
vn 0.7859 -0.0895 -0.6118
vn -0.2642 -0.7235 -0.6378
vn -0.9883 -0.0895 0.1232
vn -0.6118 -0.0895 -0.7859
vn -0.6378 -0.7235 0.2642
vn 0.1232 -0.0895 0.9883
vn -0.7859 -0.0895 0.6118
vn 0.2642 -0.7235 0.6378
vn 0.9883 -0.0895 -0.1232
# 52 vertex normals

vt 0.0743 0.3675 0.0000
vt 0.1188 0.3675 0.0000
vt 0.1188 0.4524 0.0000
vt 0.0743 0.4969 0.0000
vt 0.2037 0.3675 0.0000
vt 0.2037 0.4524 0.0000
vt 0.2037 0.4969 0.0000
vt 0.9086 0.9311 0.0000
vt 0.7792 0.9311 0.0000
vt 0.7792 0.8017 0.0000
vt 0.9086 0.8017 0.0000
vt 0.2037 0.2829 0.0000
vt 0.2905 0.2829 0.0000
vt 0.2905 0.3675 0.0000
vt 0.0010 0.3675 0.0000
vt 0.0010 0.2829 0.0000
vt 0.1105 0.2829 0.0000
vt 0.1105 0.3675 0.0000
vt 0.1188 0.2829 0.0000
vt 0.0499 0.4177 0.0000
vt 0.0443 0.4875 0.0000
vt 0.0325 0.4762 0.0000
vt 0.0010 0.3705 0.0000
vt 0.2905 0.4524 0.0000
vt 0.2905 0.4688 0.0000
vt 0.2037 0.4688 0.0000
vt 0.8046 0.3673 0.0000
vt 0.8683 0.3381 0.0000
vt 0.9342 0.3703 0.0000
vt 0.8121 0.3710 0.0000
vt 0.9086 0.7171 0.0000
vt 0.9819 0.7171 0.0000
vt 0.9819 0.8017 0.0000
vt 0.6923 0.9311 0.0000
vt 0.6923 0.8017 0.0000
vt 0.2037 0.5649 0.0000
vt 0.2905 0.5649 0.0000
vt 0.7792 0.9990 0.0000
vt 0.6923 0.9990 0.0000
vt 0.5068 0.3675 0.0000
vt 0.5068 0.4969 0.0000
vt 0.4623 0.4524 0.0000
vt 0.4623 0.3675 0.0000
vt 0.3774 0.4524 0.0000
vt 0.3774 0.3675 0.0000
vt 0.3774 0.4969 0.0000
vt 0.4761 0.9311 0.0000
vt 0.4761 0.8017 0.0000
vt 0.6055 0.8017 0.0000
vt 0.6055 0.9311 0.0000
vt 0.3774 0.2829 0.0000
vt 0.4707 0.2829 0.0000
vt 0.5801 0.2829 0.0000
vt 0.5801 0.3675 0.0000
vt 0.4707 0.3675 0.0000
vt 0.4623 0.2829 0.0000
vt 0.8450 0.9679 0.0000
vt 0.7861 0.9339 0.0000
vt 0.8964 0.9351 0.0000
vt 0.9106 0.9432 0.0000
vt 0.3774 0.4688 0.0000
vt 0.5005 0.0066 0.0000
vt 0.4946 0.0127 0.0000
vt 0.3797 0.0537 0.0000
vt 0.4306 0.0010 0.0000
vt 0.4028 0.8017 0.0000
vt 0.4028 0.7171 0.0000
vt 0.4761 0.7171 0.0000
vt 0.3774 0.5649 0.0000
vt 0.6055 0.9990 0.0000
vt 0.6923 0.7171 0.0000
vt 0.7792 0.7171 0.0000
vt 0.6055 0.7171 0.0000
vt 0.0743 0.1983 0.0000
vt 0.0743 0.0689 0.0000
vt 0.1188 0.1134 0.0000
vt 0.1188 0.1983 0.0000
vt 0.2037 0.1134 0.0000
vt 0.2037 0.1983 0.0000
vt 0.2037 0.0689 0.0000
vt 0.9086 0.5031 0.0000
vt 0.9086 0.6325 0.0000
vt 0.7792 0.6325 0.0000
vt 0.7792 0.5031 0.0000
vt 0.2905 0.1983 0.0000
vt 0.0010 0.1983 0.0000
vt 0.1105 0.1983 0.0000
vt 0.9108 0.3516 0.0000
vt 0.8508 0.3197 0.0000
vt 0.9661 0.3197 0.0000
vt 0.9755 0.3246 0.0000
vt 0.2905 0.1134 0.0000
vt 0.2037 0.1029 0.0000
vt 0.2905 0.1029 0.0000
vt 0.9672 0.9254 0.0000
vt 0.9612 0.9196 0.0000
vt 0.9200 0.8046 0.0000
vt 0.9728 0.8555 0.0000
vt 0.9819 0.6325 0.0000
vt 0.6923 0.6325 0.0000
vt 0.6923 0.5031 0.0000
vt 0.2037 0.0010 0.0000
vt 0.2905 0.0010 0.0000
vt 0.6923 0.4351 0.0000
vt 0.7792 0.4351 0.0000
vt 0.5068 0.1983 0.0000
vt 0.4623 0.1983 0.0000
vt 0.4623 0.1134 0.0000
vt 0.5068 0.0689 0.0000
vt 0.3774 0.1983 0.0000
vt 0.3774 0.1134 0.0000
vt 0.3774 0.0689 0.0000
vt 0.4761 0.5031 0.0000
vt 0.6055 0.5031 0.0000
vt 0.6055 0.6325 0.0000
vt 0.4761 0.6325 0.0000
vt 0.4707 0.1983 0.0000
vt 0.5801 0.1983 0.0000
vt 0.9200 0.9114 0.0000
vt 0.9256 0.8415 0.0000
vt 0.9332 0.8489 0.0000
vt 0.9689 0.9586 0.0000
vt 0.3774 0.1029 0.0000
vt 0.9145 0.1719 0.0000
vt 0.9437 0.2356 0.0000
vt 0.9115 0.3015 0.0000
vt 0.9108 0.1795 0.0000
vt 0.4028 0.6325 0.0000
vt 0.3774 0.0010 0.0000
vt 0.6055 0.4351 0.0000
vt 0.8138 0.0887 0.0000
vt 0.9302 0.1369 0.0000
vt 0.9057 0.1614 0.0000
vt 0.8138 0.1233 0.0000
vt 0.6771 0.0807 0.0000
vt 0.8116 0.0795 0.0000
vt 0.7971 0.1153 0.0000
vt 0.6922 0.1163 0.0000
vt 0.0010 0.9856 0.0000
vt 0.0010 0.8692 0.0000
vt 0.0485 0.8937 0.0000
vt 0.0485 0.9856 0.0000
vt 0.9074 0.1737 0.0000
vt 0.9086 0.3082 0.0000
vt 0.8728 0.2937 0.0000
vt 0.8719 0.1888 0.0000
vt 0.0703 0.4998 0.0000
vt 0.1866 0.4998 0.0000
vt 0.1622 0.5473 0.0000
vt 0.0703 0.5473 0.0000
vt 0.8144 0.4040 0.0000
vt 0.6800 0.4052 0.0000
vt 0.6944 0.3694 0.0000
vt 0.7993 0.3685 0.0000
vt 0.9810 0.1521 0.0000
vt 0.8646 0.1039 0.0000
vt 0.8891 0.0795 0.0000
vt 0.9810 0.1176 0.0000
vt 0.5841 0.3110 0.0000
vt 0.5829 0.1766 0.0000
vt 0.6187 0.1910 0.0000
vt 0.6197 0.2959 0.0000
vt 0.7100 0.1582 0.0000
vt 0.6610 0.2081 0.0000
vt 0.7800 0.1576 0.0000
vt 0.8299 0.2066 0.0000
vt 0.8306 0.2766 0.0000
vt 0.7815 0.3266 0.0000
vt 0.7115 0.3272 0.0000
vt 0.6616 0.2781 0.0000
vt 0.7341 0.2150 0.0000
vt 0.7182 0.2312 0.0000
vt 0.7569 0.2148 0.0000
vt 0.7732 0.2307 0.0000
vt 0.7733 0.2535 0.0000
vt 0.7574 0.2698 0.0000
vt 0.7346 0.2700 0.0000
vt 0.7184 0.2540 0.0000
vt 0.9670 0.2285 0.0000
vt 0.9478 0.1719 0.0000
vt 0.9662 0.1726 0.0000
vt 0.9834 0.2232 0.0000
vt 0.5908 0.9483 0.0000
vt 0.4859 0.9492 0.0000
vt 0.4885 0.9348 0.0000
vt 0.5880 0.9339 0.0000
vt 0.5978 0.4410 0.0000
vt 0.5321 0.4410 0.0000
vt 0.5364 0.4213 0.0000
vt 0.5951 0.4213 0.0000
vt 0.9485 0.2377 0.0000
vt 0.9293 0.1811 0.0000
vt 0.9477 0.1818 0.0000
vt 0.9649 0.2324 0.0000
vt 0.5908 0.9668 0.0000
vt 0.4859 0.9677 0.0000
vt 0.4885 0.9532 0.0000
vt 0.5880 0.9524 0.0000
vt 0.5090 0.4824 0.0000
vt 0.5090 0.4166 0.0000
vt 0.5287 0.4209 0.0000
vt 0.5287 0.4797 0.0000
vt 0.9812 0.2807 0.0000
vt 0.9247 0.2999 0.0000
vt 0.9254 0.2815 0.0000
vt 0.9760 0.2642 0.0000
vt 0.8138 0.3899 0.0000
vt 0.9187 0.3889 0.0000
vt 0.9161 0.4034 0.0000
vt 0.8166 0.4043 0.0000
vt 0.4454 0.5241 0.0000
vt 0.3797 0.5241 0.0000
vt 0.3839 0.5044 0.0000
vt 0.4427 0.5044 0.0000
vt 0.8415 0.9716 0.0000
vt 0.8981 0.9524 0.0000
vt 0.8974 0.9708 0.0000
vt 0.8468 0.9880 0.0000
vt 0.6043 0.0194 0.0000
vt 0.5074 0.0194 0.0000
vt 0.5044 0.0056 0.0000
vt 0.5963 0.0056 0.0000
vt 0.5978 0.4733 0.0000
vt 0.5321 0.4733 0.0000
vt 0.5364 0.4536 0.0000
vt 0.5951 0.4536 0.0000
# 226 texture coords

o Box001
g Box001
usemtl wire_166229229
s 4
f 1/1/1 2/2/1 3/3/1 
f 3/3/1 4/4/1 1/1/1 
s 1
f 3/3/2 2/2/2 5/5/2 
f 5/5/2 6/6/2 3/3/2 
s 2
f 7/7/3 4/4/3 3/3/3 
f 3/3/3 6/6/3 7/7/3 
s 1
f 4/8/4 7/9/4 8/10/4 
f 8/10/4 1/11/4 4/8/4 
f 9/12/2 10/13/2 11/14/2 
f 11/14/2 5/5/2 9/12/2 
s 4
f 12/15/5 13/16/5 14/17/5 
f 14/17/5 15/18/5 12/15/5 
s 1
f 2/2/2 16/19/2 9/12/2 
f 9/12/2 5/5/2 2/2/2 
s off
f 7/20/6 6/21/6 17/22/6 
f 17/22/6 18/23/6 7/20/6 
s 1
f 19/24/2 20/25/2 17/26/2 
f 17/26/2 6/6/2 19/24/2 
s off
f 2/27/7 1/28/7 12/29/7 
f 12/29/7 15/30/7 2/27/7 
s 1
f 21/31/4 13/32/4 12/33/4 
f 12/33/4 1/11/4 21/31/4 
f 8/10/4 7/9/4 22/34/4 
f 22/34/4 23/35/4 8/10/4 
f 6/6/2 5/5/2 11/14/2 
f 11/14/2 19/24/2 6/6/2 
s 2
f 18/36/8 17/26/9 20/25/9 
f 20/25/9 24/37/9 18/36/8 
s 1
f 7/9/4 18/38/4 24/39/4 
f 24/39/4 22/34/4 7/9/4 
s 4
f 25/40/10 26/41/10 27/42/10 
f 27/42/10 28/43/10 25/40/10 
s 1
f 27/42/2 29/44/2 30/45/2 
f 30/45/2 28/43/2 27/42/2 
s 2
f 31/46/3 29/44/3 27/42/3 
f 27/42/3 26/41/3 31/46/3 
s 1
f 26/47/4 25/48/4 32/49/4 
f 32/49/4 31/50/4 26/47/4 
f 11/14/2 10/13/2 33/51/2 
f 33/51/2 30/45/2 11/14/2 
s 4
f 34/52/11 35/53/11 36/54/11 
f 36/54/11 37/55/11 34/52/11 
s 1
f 33/51/2 38/56/2 28/43/2 
f 28/43/2 30/45/2 33/51/2 
s off
f 31/57/12 39/58/12 40/59/12 
f 40/59/12 29/60/12 31/57/12 
s 1
f 19/24/2 29/44/2 40/61/2 
f 40/61/2 20/25/2 19/24/2 
s off
f 28/62/7 37/63/7 36/64/7 
f 36/64/7 25/65/7 28/62/7 
s 1
f 36/66/4 35/67/4 41/68/4 
f 41/68/4 25/48/4 36/66/4 
f 32/49/4 23/35/4 22/34/4 
f 22/34/4 31/50/4 32/49/4 
f 29/44/2 19/24/2 11/14/2 
f 11/14/2 30/45/2 29/44/2 
s 2
f 39/69/9 24/37/9 20/25/9 
f 20/25/9 40/61/9 39/69/9 
s 1
f 31/50/4 22/34/4 24/39/4 
f 24/39/4 39/70/4 31/50/4 
f 8/10/4 23/35/4 42/71/4 
f 42/71/4 43/72/4 8/10/4 
f 1/11/4 8/10/4 43/72/4 
f 43/72/4 21/31/4 1/11/4 
f 2/2/2 15/18/2 14/17/2 
f 14/17/2 16/19/2 2/2/2 
f 23/35/4 32/49/4 44/73/4 
f 44/73/4 42/71/4 23/35/4 
f 32/49/4 25/48/4 41/68/4 
f 41/68/4 44/73/4 32/49/4 
f 37/55/2 28/43/2 38/56/2 
f 38/56/2 34/52/2 37/55/2 
s 4
f 45/74/1 46/75/1 47/76/1 
f 47/76/1 48/77/1 45/74/1 
s 1
f 47/76/2 49/78/2 50/79/2 
f 50/79/2 48/77/2 47/76/2 
s 2
f 51/80/13 49/78/13 47/76/13 
f 47/76/13 46/75/13 51/80/13 
s 1
f 46/81/4 45/82/4 52/83/4 
f 52/83/4 51/84/4 46/81/4 
f 9/12/2 50/79/2 53/85/2 
f 53/85/2 10/13/2 9/12/2 
s 4
f 54/86/5 55/87/5 14/17/5 
f 14/17/5 13/16/5 54/86/5 
s 1
f 48/77/2 50/79/2 9/12/2 
f 9/12/2 16/19/2 48/77/2 
s off
f 51/88/6 56/89/6 57/90/6 
f 57/90/6 49/91/6 51/88/6 
s 1
f 58/92/2 49/78/2 57/93/2 
f 57/93/2 59/94/2 58/92/2 
s off
f 48/95/14 55/96/14 54/97/14 
f 54/97/14 45/98/14 48/95/14 
s 1
f 21/31/4 45/82/4 54/99/4 
f 54/99/4 13/32/4 21/31/4 
f 52/83/4 60/100/4 61/101/4 
f 61/101/4 51/84/4 52/83/4 
f 49/78/2 58/92/2 53/85/2 
f 53/85/2 50/79/2 49/78/2 
s 2
f 56/102/15 62/103/16 59/94/16 
f 59/94/16 57/93/16 56/102/15 
s 1
f 51/84/4 61/101/4 62/104/4 
f 62/104/4 56/105/4 51/84/4 
s 4
f 63/106/10 64/107/10 65/108/10 
f 65/108/10 66/109/10 63/106/10 
s 1
f 65/108/2 64/107/2 67/110/2 
f 67/110/2 68/111/2 65/108/2 
s 2
f 69/112/13 66/109/13 65/108/13 
f 65/108/13 68/111/13 69/112/13 
s 1
f 66/113/4 69/114/4 70/115/4 
f 70/115/4 63/116/4 66/113/4 
f 53/85/2 67/110/2 33/51/2 
f 33/51/2 10/13/2 53/85/2 
s 4
f 34/52/11 71/117/11 72/118/11 
f 72/118/11 35/53/11 34/52/11 
s 1
f 33/51/2 67/110/2 64/107/2 
f 64/107/2 38/56/2 33/51/2 
s off
f 69/119/12 68/120/12 73/121/12 
f 73/121/12 74/122/12 69/119/12 
s 1
f 58/92/2 59/94/2 73/123/2 
f 73/123/2 68/111/2 58/92/2 
s off
f 64/124/14 63/125/14 72/126/14 
f 72/126/14 71/127/14 64/124/14 
s 1
f 72/128/4 63/116/4 41/68/4 
f 41/68/4 35/67/4 72/128/4 
f 70/115/4 69/114/4 61/101/4 
f 61/101/4 60/100/4 70/115/4 
f 68/111/2 67/110/2 53/85/2 
f 53/85/2 58/92/2 68/111/2 
s 2
f 74/129/16 73/123/16 59/94/16 
f 59/94/16 62/103/16 74/129/16 
s 1
f 69/114/4 74/130/4 62/104/4 
f 62/104/4 61/101/4 69/114/4 
f 52/83/4 43/72/4 42/71/4 
f 42/71/4 60/100/4 52/83/4 
f 45/82/4 21/31/4 43/72/4 
f 43/72/4 52/83/4 45/82/4 
f 48/77/2 16/19/2 14/17/2 
f 14/17/2 55/87/2 48/77/2 
f 60/100/4 42/71/4 44/73/4 
f 44/73/4 70/115/4 60/100/4 
f 70/115/4 44/73/4 41/68/4 
f 41/68/4 63/116/4 70/115/4 
f 71/117/2 34/52/2 38/56/2 
f 38/56/2 64/107/2 71/117/2 
s 8
f 75/131/17 76/132/17 77/133/17 
f 77/133/17 78/134/17 75/131/17 
f 79/135/18 80/136/18 81/137/18 
f 81/137/18 82/138/18 79/135/18 
f 83/139/19 84/140/19 85/141/19 
f 85/141/19 86/142/19 83/139/19 
f 87/143/20 88/144/20 89/145/20 
f 89/145/20 90/146/20 87/143/20 
f 91/147/21 92/148/21 93/149/21 
f 93/149/21 94/150/21 91/147/21 
f 95/151/22 96/152/22 97/153/22 
f 97/153/22 98/154/22 95/151/22 
f 99/155/23 100/156/23 101/157/23 
f 101/157/23 102/158/23 99/155/23 
f 103/159/24 104/160/24 105/161/24 
f 105/161/24 106/162/24 103/159/24 
s off
f 105/161/25 82/138/25 107/163/25 
f 107/163/25 108/164/25 105/161/25 
f 82/138/26 81/137/26 109/165/26 
f 109/165/26 107/163/26 82/138/26 
f 81/137/27 90/146/27 110/166/27 
f 110/166/27 109/165/27 81/137/27 
f 90/146/28 89/145/28 111/167/28 
f 111/167/28 110/166/28 90/146/28 
f 89/145/29 98/154/29 112/168/29 
f 112/168/29 111/167/29 89/145/29 
f 98/154/30 97/153/30 113/169/30 
f 113/169/30 112/168/30 98/154/30 
f 97/153/31 106/162/31 114/170/31 
f 114/170/31 113/169/31 97/153/31 
f 106/162/32 105/161/32 108/164/32 
f 108/164/32 114/170/32 106/162/32 
f 108/164/33 107/163/33 115/171/33 
f 115/171/33 116/172/33 108/164/33 
f 107/163/34 109/165/34 117/173/34 
f 117/173/34 115/171/34 107/163/34 
f 109/165/35 110/166/35 118/174/35 
f 118/174/35 117/173/35 109/165/35 
f 110/166/36 111/167/36 119/175/36 
f 119/175/36 118/174/36 110/166/36 
f 111/167/37 112/168/37 120/176/37 
f 120/176/37 119/175/37 111/167/37 
f 112/168/38 113/169/38 121/177/38 
f 121/177/38 120/176/38 112/168/38 
f 113/169/39 114/170/39 122/178/39 
f 122/178/39 121/177/39 113/169/39 
f 114/170/40 108/164/40 116/172/40 
f 116/172/40 122/178/40 114/170/40 
s 2
f 117/173/2 118/174/2 119/175/2 
f 119/175/2 120/176/2 121/177/2 
f 121/177/2 122/178/2 116/172/2 
f 119/175/2 121/177/2 116/172/2 
f 117/173/2 119/175/2 116/172/2 
f 115/171/2 117/173/2 116/172/2 
s off
f 79/179/41 82/180/41 77/181/41 
f 77/181/41 76/182/41 79/179/41 
f 82/183/42 105/184/42 78/185/42 
f 78/185/42 77/186/42 82/183/42 
f 105/187/43 104/188/43 75/189/43 
f 75/189/43 78/190/43 105/187/43 
f 87/191/44 90/192/44 85/193/44 
f 85/193/44 84/194/44 87/191/44 
f 90/195/45 81/196/45 86/197/45 
f 86/197/45 85/198/45 90/195/45 
f 81/199/46 80/200/46 83/201/46 
f 83/201/46 86/202/46 81/199/46 
f 95/203/47 98/204/47 93/205/47 
f 93/205/47 92/206/47 95/203/47 
f 98/207/48 89/208/48 94/209/48 
f 94/209/48 93/210/48 98/207/48 
f 89/211/49 88/212/49 91/213/49 
f 91/213/49 94/214/49 89/211/49 
f 103/215/50 106/216/50 101/217/50 
f 101/217/50 100/218/50 103/215/50 
f 106/219/51 97/220/51 102/221/51 
f 102/221/51 101/222/51 106/219/51 
f 97/223/52 96/224/52 99/225/52 
f 99/225/52 102/226/52 97/223/52 
# 222 faces

