# 3ds Max Wavefront OBJ Exporter v0.99 - (c)2007 guruware
# File Created: 13.05.2025 01:02:39

mtllib ?????.mtl

#
# object Cylinder002
#

v  4.5726 16.8495 -6.3752
v  4.5092 21.5911 -6.2655
v  8.6913 21.5911 0.9782
v  8.8181 16.8495 0.9782
v  -3.9184 16.8495 -6.3752
v  -3.8550 21.5911 -6.2655
v  -8.1638 16.8495 0.9782
v  -8.0371 21.5911 0.9782
v  -3.9184 16.8495 8.3315
v  -3.8550 21.5911 8.2218
v  4.5726 16.8495 8.3315
v  4.5092 21.5911 8.2218
v  9.3752 57.7034 0.9782
v  4.8512 57.7034 -6.8578
v  2.3442 57.7034 -2.5155
v  4.3612 57.7034 0.9782
v  -4.1970 57.7034 -6.8578
v  -1.6900 57.7034 -2.5155
v  -8.7210 57.7034 0.9782
v  -3.7070 57.7034 0.9782
v  -4.1970 57.7034 8.8141
v  -1.6900 57.7034 4.4718
v  4.8512 57.7034 8.8141
v  2.3442 57.7034 4.4718
v  2.3442 124.9415 -2.5155
v  4.3612 124.9415 0.9782
v  -1.6900 124.9415 -2.5155
v  -3.7070 124.9415 0.9782
v  -1.6900 124.9415 4.4718
v  2.3442 124.9415 4.4718
v  5.1338 51.3125 0.9782
v  2.7304 51.3125 -3.1845
v  -2.0762 51.3125 -3.1845
v  -4.4796 51.3125 0.9782
v  -2.0762 51.3125 5.1408
v  2.7304 51.3125 5.1408
v  4.1786 124.9415 -5.6928
v  8.0301 124.9415 0.9782
v  -3.5244 124.9415 -5.6928
v  -7.3759 124.9415 0.9782
v  -3.5244 124.9415 7.6491
v  4.1786 124.9415 7.6491
v  4.1786 137.3850 -5.6928
v  8.0301 134.9748 0.9782
v  -3.5244 137.3850 -5.6928
v  -7.3759 134.9748 0.9782
v  -3.5244 132.4134 7.6491
v  4.1786 132.4134 7.6491
v  8.0301 168.0202 0.9782
v  4.1786 168.0202 -5.6928
v  2.5590 168.0202 -2.8877
v  4.7910 168.0202 0.9782
v  -3.5244 168.0202 -5.6928
v  -1.9048 168.0202 -2.8877
v  -7.3759 168.0202 0.9782
v  -4.1368 168.0202 0.9782
v  -3.5244 168.0202 7.6491
v  -1.9048 168.0202 4.8440
v  4.1786 168.0202 7.6491
v  2.5590 168.0202 4.8440
v  8.0301 162.7674 0.9782
v  4.1786 162.7674 -5.6928
v  -3.5244 162.7674 -5.6928
v  -7.3759 162.7674 0.9782
v  -3.5244 162.7674 7.6491
v  4.1786 162.7674 7.6491
v  -18.1732 179.0944 31.6887
v  18.8274 179.0944 31.6887
v  18.8274 116.0864 31.6887
v  -18.1732 116.0864 31.6887
v  -22.7339 175.1018 56.5549
v  23.3881 175.1018 56.5549
v  23.3881 120.0790 56.5549
v  -22.7339 120.0790 56.5549
v  -17.2821 168.5979 65.0593
v  17.9363 168.5979 65.0593
v  17.9363 126.5829 65.0593
v  -17.2821 126.5829 65.0593
v  4.1786 161.6409 -25.9351
v  -3.5244 161.6409 -25.9351
v  -3.5244 139.0631 -26.8464
v  4.1786 139.0631 -26.8464
v  4.1786 145.8666 -60.8281
v  -3.5244 145.8666 -60.8281
v  -3.5244 134.2858 -47.3098
v  4.1786 134.2858 -47.3098
v  5.9303 21.5173 0.9782
v  3.1287 21.5173 -3.8743
v  -2.4745 21.5173 -3.8743
v  -5.2761 21.5173 0.9782
v  -2.4745 21.5173 5.8307
v  3.1287 21.5173 5.8307
v  6.0570 16.7757 0.9782
v  3.1921 16.7757 -3.9841
v  -2.5379 16.7757 -3.9841
v  -5.4028 16.7757 0.9782
v  -2.5379 16.7757 5.9404
v  3.1921 16.7757 5.9404
v  8.5517 7.6572 0.9782
v  4.4394 7.6572 -6.1446
v  -3.7852 7.6572 -6.1446
v  -7.8975 7.6572 0.9782
v  -3.7852 7.6572 8.1009
v  4.4394 7.6572 8.1009
v  4.3011 174.8560 -5.9050
v  8.2751 174.8560 0.9782
v  -3.6469 174.8560 -5.9050
v  -7.6209 174.8560 0.9782
v  -3.6469 174.8560 7.8614
v  4.3011 174.8560 7.8614
# 110 vertices

vn 0.4998 0.0267 -0.8657
vn 0.9996 0.0267 -0.0000
vn 0.9996 0.0267 0.0000
vn -0.4998 0.0267 -0.8657
vn -0.9996 0.0267 -0.0000
vn -0.9996 0.0267 0.0000
vn -0.4998 0.0267 0.8657
vn 0.4998 0.0267 0.8657
vn 0.0000 1.0000 -0.0000
vn 0.8660 0.0000 -0.5000
vn -0.0000 0.0000 -1.0000
vn -0.8660 0.0000 -0.5000
vn -0.8660 0.0000 0.5000
vn 0.0000 0.0000 1.0000
vn 0.8660 0.0000 0.5000
vn 0.4166 -0.5530 -0.7216
vn 0.8332 -0.5530 0.0000
vn 0.9522 -0.3054 0.0000
vn 0.4761 -0.3054 -0.8246
vn -0.4166 -0.5530 -0.7216
vn -0.4761 -0.3054 -0.8246
vn -0.8332 -0.5530 0.0000
vn -0.9522 -0.3054 0.0000
vn -0.4166 -0.5530 0.7216
vn -0.4761 -0.3054 0.8246
vn 0.4166 -0.5530 0.7216
vn 0.4761 -0.3054 0.8246
vn -0.0000 -1.0000 0.0000
vn 0.0000 -1.0000 0.0000
vn 0.0000 -1.0000 -0.0000
vn -0.0000 -1.0000 -0.0000
vn 0.8660 -0.0000 -0.5000
vn -0.0000 -0.0000 -1.0000
vn -0.0000 1.0000 -0.0000
vn -0.0000 1.0000 0.0000
vn 0.0000 1.0000 0.0000
vn -0.8660 -0.0000 -0.5000
vn -0.8660 -0.0000 0.5000
vn 0.8660 -0.0000 0.5000
vn 0.0000 0.8272 -0.5618
vn 0.8539 0.0000 -0.5204
vn -0.8539 0.0000 -0.5204
vn 0.0000 -0.8272 -0.5618
vn 0.0000 0.9874 0.1585
vn 0.9836 0.0000 -0.1804
vn -0.9836 0.0000 -0.1804
vn 0.0000 -0.9874 0.1585
vn 0.0000 0.7943 0.6075
vn 0.8419 0.0000 0.5397
vn -0.8419 0.0000 0.5397
vn 0.0000 -0.7943 0.6075
vn -0.0000 0.9985 -0.0556
vn 0.0000 0.9985 -0.0556
vn -1.0000 0.0000 -0.0000
vn 1.0000 0.0000 -0.0000
vn -0.0000 -0.9969 -0.0791
vn 0.0000 -0.9969 -0.0791
vn 0.0000 0.9112 -0.4119
vn 0.0000 -0.9738 0.2273
vn 0.0000 -0.7594 -0.6506
vn 0.0267 -0.9995 -0.0154
vn -0.0000 -0.9995 -0.0309
vn -0.0267 -0.9995 -0.0154
vn -0.0267 -0.9995 0.0154
vn 0.0000 -0.9995 0.0309
vn 0.0267 -0.9995 0.0154
vn -0.0267 0.9995 0.0154
vn -0.0267 0.9995 -0.0154
vn 0.0000 0.9995 -0.0309
vn 0.0267 0.9995 -0.0154
vn 0.0267 0.9995 0.0154
vn 0.0000 0.9995 0.0309
vn 0.8427 0.2305 -0.4865
vn -0.0000 0.2305 -0.9731
vn 0.0000 0.2305 -0.9731
vn -0.8427 0.2305 -0.4865
vn -0.8427 0.2305 0.4865
vn 0.0000 0.2305 0.9731
vn 0.8427 0.2305 0.4865
vn 0.7923 -0.4038 -0.4574
vn -0.0000 -0.4038 -0.9148
vn -0.7923 -0.4038 -0.4574
vn -0.7923 -0.4038 0.4574
vn 0.0000 -0.4038 0.9148
vn 0.7923 -0.4038 0.4574
# 85 vertex normals

vt 1.0022 0.2041 0.0000
vt 0.9976 0.2348 0.0000
vt 0.9637 0.2303 0.0000
vt 0.9669 0.2063 0.0000
vt 0.8564 0.1769 0.0000
vt 0.8476 0.1979 0.0000
vt 0.8176 0.1801 0.0000
vt 0.8339 0.1539 0.0000
vt 0.8802 0.1962 0.0000
vt 0.8738 0.2143 0.0000
vt 0.9081 0.2084 0.0000
vt 0.9031 0.2256 0.0000
vt 0.9385 0.2098 0.0000
vt 0.9337 0.2297 0.0000
vt 0.8929 0.4144 0.0000
vt 0.9262 0.4283 0.0000
vt 0.9004 0.4426 0.0000
vt 0.8824 0.4337 0.0000
vt 0.7688 0.3815 0.0000
vt 0.8020 0.3856 0.0000
vt 0.8041 0.4062 0.0000
vt 0.7844 0.4029 0.0000
vt 0.8256 0.3917 0.0000
vt 0.8238 0.4124 0.0000
vt 0.8473 0.3988 0.0000
vt 0.8436 0.4191 0.0000
vt 0.8690 0.4063 0.0000
vt 0.8632 0.4262 0.0000
vt 0.7910 0.7477 0.0000
vt 0.7726 0.7411 0.0000
vt 0.6991 0.7158 0.0000
vt 0.6805 0.7095 0.0000
vt 0.7175 0.7220 0.0000
vt 0.7359 0.7283 0.0000
vt 0.7543 0.7347 0.0000
vt 0.9033 0.3821 0.0000
vt 0.9258 0.3892 0.0000
vt 0.7872 0.3436 0.0000
vt 0.8101 0.3506 0.0000
vt 0.8334 0.3578 0.0000
vt 0.8569 0.3655 0.0000
vt 0.8802 0.3736 0.0000
vt 0.2873 0.6976 0.0000
vt 0.2668 0.7045 0.0000
vt 0.2495 0.6930 0.0000
vt 0.2831 0.6833 0.0000
vt 0.3725 0.7401 0.0000
vt 0.3693 0.7225 0.0000
vt 0.3849 0.7152 0.0000
vt 0.3914 0.7456 0.0000
vt 0.3555 0.7105 0.0000
vt 0.3669 0.6988 0.0000
vt 0.3350 0.7030 0.0000
vt 0.3413 0.6893 0.0000
vt 0.3113 0.6986 0.0000
vt 0.3128 0.6842 0.0000
vt 0.2461 0.6248 0.0000
vt 0.2809 0.6389 0.0000
vt 0.4367 0.6696 0.0000
vt 0.4478 0.7080 0.0000
vt 0.3959 0.6630 0.0000
vt 0.3553 0.6611 0.0000
vt 0.3172 0.6536 0.0000
vt 0.3181 0.5047 0.0000
vt 0.2923 0.4815 0.0000
vt 0.3107 0.4778 0.0000
vt 0.3250 0.4947 0.0000
vt 0.4441 0.4655 0.0000
vt 0.4296 0.4948 0.0000
vt 0.4175 0.4801 0.0000
vt 0.4297 0.4624 0.0000
vt 0.4087 0.5096 0.0000
vt 0.4015 0.4970 0.0000
vt 0.3806 0.5172 0.0000
vt 0.3782 0.5065 0.0000
vt 0.3486 0.5163 0.0000
vt 0.3501 0.5069 0.0000
vt 0.3075 0.5223 0.0000
vt 0.2744 0.5054 0.0000
vt 0.4647 0.4848 0.0000
vt 0.4483 0.5227 0.0000
vt 0.4161 0.5335 0.0000
vt 0.3807 0.5373 0.0000
vt 0.3436 0.5336 0.0000
vt 0.7761 0.1329 0.0000
vt 0.7410 0.1329 0.0000
vt 0.6741 0.0002 0.0000
vt 0.8430 0.0002 0.0000
vt 0.5968 0.1288 0.0000
vt 0.4582 0.1288 0.0000
vt 0.3836 0.0002 0.0000
vt 0.6713 0.0002 0.0000
vt 0.6040 0.3698 0.0000
vt 0.4957 0.4563 0.0000
vt 0.3573 0.4023 0.0000
vt 0.5821 0.2228 0.0000
vt 0.0230 0.3820 0.0000
vt 0.0010 0.3545 0.0000
vt 0.0630 0.2195 0.0000
vt 0.1684 0.3515 0.0000
vt 0.1901 0.1152 0.0000
vt 0.0212 0.1152 0.0000
vt 0.0004 0.0002 0.0000
vt 0.2110 0.0002 0.0000
vt 0.2882 0.8200 0.0000
vt 0.0005 0.8200 0.0000
vt 0.0187 0.7046 0.0000
vt 0.2700 0.7046 0.0000
vt 0.2995 0.3007 0.0000
vt 0.4959 0.1440 0.0000
vt 0.1399 0.1315 0.0000
vt 0.2713 0.2961 0.0000
vt 0.7968 0.2307 0.0000
vt 0.5862 0.2307 0.0000
vt 0.6111 0.1818 0.0000
vt 0.7719 0.1818 0.0000
vt 0.7918 0.1805 0.0000
vt 0.5406 0.1805 0.0000
vt 0.5703 0.1344 0.0000
vt 0.7621 0.1344 0.0000
vt 0.2939 0.2461 0.0000
vt 0.4439 0.1265 0.0000
vt 0.1936 0.1204 0.0000
vt 0.3436 0.0008 0.0000
vt 0.5497 0.5101 0.0000
vt 0.5376 0.5446 0.0000
vt 0.5472 0.6584 0.0000
vt 0.1482 0.5922 0.0000
vt 0.1785 0.4872 0.0000
vt 0.5516 0.6959 0.0000
vt 0.7125 0.5751 0.0000
vt 0.6857 0.5964 0.0000
vt 0.6556 0.6561 0.0000
vt 0.0464 0.5908 0.0000
vt -0.0036 0.5206 0.0000
vt 0.6588 0.6922 0.0000
vt 0.6982 0.6636 0.0000
vt 0.9597 0.2427 0.0000
vt 0.9861 0.2493 0.0000
vt 0.8202 0.1983 0.0000
vt 0.8459 0.2092 0.0000
vt 0.8726 0.2228 0.0000
vt 0.9014 0.2332 0.0000
vt 0.9311 0.2391 0.0000
vt 0.9662 0.1940 0.0000
vt 0.9933 0.1900 0.0000
vt 0.8495 0.1468 0.0000
vt 0.8630 0.1677 0.0000
vt 0.8836 0.1874 0.0000
vt 0.9100 0.1997 0.0000
vt 0.9396 0.1996 0.0000
vt 0.9478 0.1398 0.0000
vt 0.9874 0.1362 0.0000
vt 0.9018 0.1086 0.0000
vt 0.8893 0.1457 0.0000
vt 0.8998 0.1603 0.0000
vt 0.9187 0.1735 0.0000
vt 0.9407 0.1607 0.0000
vt 0.3343 0.4496 0.0000
vt 0.3346 0.4730 0.0000
vt 0.3809 0.4414 0.0000
vt 0.4087 0.4229 0.0000
vt 0.3854 0.4731 0.0000
vt 0.3730 0.4832 0.0000
vt 0.3528 0.4901 0.0000
# 165 texture coords

o Cylinder002
g Cylinder002
usemtl wire_225143087
s 8
f 1/1/1 2/2/1 3/3/2 
f 3/3/2 4/4/3 1/1/1 
f 5/5/4 6/6/4 2/7/1 
f 2/7/1 1/8/1 5/5/4 
f 7/9/5 8/10/6 6/6/4 
f 6/6/4 5/5/4 7/9/5 
f 9/11/7 10/12/7 8/10/6 
f 8/10/6 7/9/5 9/11/7 
f 11/13/8 12/14/8 10/12/7 
f 10/12/7 9/11/7 11/13/8 
f 4/4/3 3/3/2 12/14/8 
f 12/14/8 11/13/8 4/4/3 
s off
f 13/15/9 14/16/9 15/17/9 
f 15/17/9 16/18/9 13/15/9 
f 14/19/9 17/20/9 18/21/9 
f 18/21/9 15/22/9 14/19/9 
f 17/20/9 19/23/9 20/24/9 
f 20/24/9 18/21/9 17/20/9 
f 19/23/9 21/25/9 22/26/9 
f 22/26/9 20/24/9 19/23/9 
f 21/25/9 23/27/9 24/28/9 
f 24/28/9 22/26/9 21/25/9 
f 23/27/9 13/15/9 16/18/9 
f 16/18/9 24/28/9 23/27/9 
f 16/18/10 15/17/10 25/29/10 
f 25/29/10 26/30/10 16/18/10 
f 15/22/11 18/21/11 27/31/11 
f 27/31/11 25/32/11 15/22/11 
f 18/21/12 20/24/12 28/33/12 
f 28/33/12 27/31/12 18/21/12 
f 20/24/13 22/26/13 29/34/13 
f 29/34/13 28/33/13 20/24/13 
f 22/26/14 24/28/14 30/35/14 
f 30/35/14 29/34/14 22/26/14 
f 24/28/15 16/18/15 26/30/15 
f 26/30/15 30/35/15 24/28/15 
s 8
f 14/16/16 13/15/17 31/36/18 
f 31/36/18 32/37/19 14/16/16 
f 17/20/20 14/19/16 32/38/19 
f 32/38/19 33/39/21 17/20/20 
f 19/23/22 17/20/20 33/39/21 
f 33/39/21 34/40/23 19/23/22 
f 21/25/24 19/23/22 34/40/23 
f 34/40/23 35/41/25 21/25/24 
f 23/27/26 21/25/24 35/41/25 
f 35/41/25 36/42/27 23/27/26 
f 13/15/17 23/27/26 36/42/27 
f 36/42/27 31/36/18 13/15/17 
s off
f 26/43/28 25/44/28 37/45/28 
f 37/45/28 38/46/28 26/43/28 
f 25/47/29 27/48/29 39/49/29 
f 39/49/29 37/50/29 25/47/29 
f 27/48/29 28/51/29 40/52/29 
f 40/52/29 39/49/29 27/48/29 
f 28/51/30 29/53/30 41/54/30 
f 41/54/30 40/52/30 28/51/30 
f 29/53/30 30/55/30 42/56/30 
f 42/56/30 41/54/30 29/53/30 
f 30/55/31 26/43/31 38/46/31 
f 38/46/31 42/56/31 30/55/31 
f 37/45/32 43/57/32 44/58/32 
f 44/58/32 38/46/32 37/45/32 
f 39/49/11 45/59/11 43/60/11 
f 43/60/33 37/50/33 39/49/33 
f 40/52/12 46/61/12 45/59/12 
f 45/59/12 39/49/12 40/52/12 
f 41/54/13 47/62/13 46/61/13 
f 46/61/13 40/52/13 41/54/13 
f 42/56/14 48/63/14 47/62/14 
f 47/62/14 41/54/14 42/56/14 
f 38/46/15 44/58/15 48/63/15 
f 48/63/15 42/56/15 38/46/15 
f 49/64/9 50/65/9 51/66/9 
f 51/66/9 52/67/9 49/64/9 
f 50/68/34 53/69/34 54/70/34 
f 54/70/34 51/71/34 50/68/34 
f 53/69/34 55/72/34 56/73/34 
f 56/73/34 54/70/34 53/69/34 
f 55/72/35 57/74/35 58/75/35 
f 58/75/35 56/73/35 55/72/35 
f 57/74/36 59/76/36 60/77/36 
f 60/77/36 58/75/36 57/74/36 
f 59/76/36 49/64/36 52/67/36 
f 52/67/36 60/77/36 59/76/36 
f 50/65/32 49/64/32 61/78/32 
f 61/78/32 62/79/32 50/65/32 
f 53/69/11 50/68/11 62/80/11 
f 62/80/11 63/81/11 53/69/11 
f 55/72/12 53/69/12 63/81/12 
f 63/81/37 64/82/37 55/72/37 
f 57/74/38 55/72/38 64/82/38 
f 64/82/13 65/83/13 57/74/13 
f 59/76/14 57/74/14 65/83/14 
f 65/83/14 66/84/14 59/76/14 
f 49/64/15 59/76/15 66/84/15 
f 66/84/39 61/78/39 49/64/39 
f 62/79/10 61/78/10 44/58/10 
f 44/58/10 43/57/10 62/79/10 
f 64/82/37 63/81/37 45/59/37 
f 45/59/12 46/61/12 64/82/12 
f 65/83/13 64/82/13 46/61/13 
f 46/61/13 47/62/13 65/83/13 
f 61/78/15 66/84/15 48/63/15 
f 48/63/15 44/58/15 61/78/15 
f 66/85/40 65/86/40 67/87/40 
f 67/87/40 68/88/40 66/85/40 
f 48/89/41 66/90/41 68/91/41 
f 68/91/41 69/92/41 48/89/41 
f 65/93/42 47/94/42 70/95/42 
f 70/95/42 67/96/42 65/93/42 
f 47/97/43 48/98/43 69/99/43 
f 69/99/43 70/100/43 47/97/43 
f 68/101/44 67/102/44 71/103/44 
f 71/103/44 72/104/44 68/101/44 
f 69/105/45 68/106/45 72/107/45 
f 72/107/45 73/108/45 69/105/45 
f 67/96/46 70/95/46 74/109/46 
f 74/109/46 71/110/46 67/96/46 
f 70/100/47 69/99/47 73/111/47 
f 73/111/47 74/112/47 70/100/47 
f 72/113/48 71/114/48 75/115/48 
f 75/115/48 76/116/48 72/113/48 
f 73/117/49 72/118/49 76/119/49 
f 76/119/49 77/120/49 73/117/49 
f 71/110/50 74/109/50 78/121/50 
f 78/121/50 75/122/50 71/110/50 
f 74/112/51 73/111/51 77/123/51 
f 77/123/51 78/121/51 74/112/51 
s 4
f 78/121/14 77/123/14 76/124/14 
f 76/124/14 75/122/14 78/121/14 
s off
f 63/81/52 62/80/52 79/125/52 
f 79/125/53 80/126/53 63/81/53 
f 45/59/54 63/81/54 80/126/54 
f 80/126/54 81/127/54 45/59/54 
f 62/79/55 43/57/55 82/128/55 
f 82/128/55 79/129/55 62/79/55 
f 43/60/56 45/59/56 81/127/56 
f 81/127/57 82/130/57 43/60/57 
f 80/126/58 79/125/58 83/131/58 
f 83/131/58 84/132/58 80/126/58 
f 81/127/54 80/126/54 84/132/54 
f 84/132/54 85/133/54 81/127/54 
f 79/129/55 82/128/55 86/134/55 
f 86/134/55 83/135/55 79/129/55 
f 82/130/59 81/127/59 85/133/59 
f 85/133/59 86/136/59 82/130/59 
s 16
f 86/137/60 85/133/60 84/132/60 
f 84/132/60 83/131/60 86/137/60 
s 8
f 32/37/19 31/36/18 87/138/2 
f 87/138/2 88/139/1 32/37/19 
f 33/39/21 32/38/19 88/140/1 
f 88/140/1 89/141/4 33/39/21 
f 34/40/23 33/39/21 89/141/4 
f 89/141/4 90/142/6 34/40/23 
f 35/41/25 34/40/23 90/142/6 
f 90/142/6 91/143/7 35/41/25 
f 36/42/27 35/41/25 91/143/7 
f 91/143/7 92/144/8 36/42/27 
f 31/36/18 36/42/27 92/144/8 
f 92/144/8 87/138/2 31/36/18 
s off
f 93/145/61 94/146/61 1/1/61 
f 1/1/61 4/4/61 93/145/61 
f 94/147/62 95/148/62 5/5/62 
f 5/5/62 1/8/62 94/147/62 
f 95/148/63 96/149/63 7/9/63 
f 7/9/63 5/5/63 95/148/63 
f 96/149/64 97/150/64 9/11/64 
f 9/11/64 7/9/64 96/149/64 
f 97/150/65 98/151/65 11/13/65 
f 11/13/65 9/11/65 97/150/65 
f 98/151/66 93/145/66 4/4/66 
f 4/4/66 11/13/66 98/151/66 
f 88/139/67 87/138/67 3/3/67 
f 3/3/67 2/2/67 88/139/67 
f 87/138/68 92/144/68 12/14/68 
f 12/14/68 3/3/68 87/138/68 
f 92/144/69 91/143/69 10/12/69 
f 10/12/69 12/14/69 92/144/69 
f 91/143/70 90/142/70 8/10/70 
f 8/10/70 10/12/70 91/143/70 
f 90/142/71 89/141/71 6/6/71 
f 6/6/71 8/10/71 90/142/71 
f 89/141/72 88/140/72 2/7/72 
f 2/7/72 6/6/72 89/141/72 
f 94/146/73 93/145/73 99/152/73 
f 99/152/73 100/153/73 94/146/73 
f 95/148/74 94/147/74 100/154/74 
f 100/154/75 101/155/75 95/148/75 
f 96/149/76 95/148/76 101/155/76 
f 101/155/76 102/156/76 96/149/76 
f 97/150/77 96/149/77 102/156/77 
f 102/156/77 103/157/77 97/150/77 
f 98/151/78 97/150/78 103/157/78 
f 103/157/78 104/158/78 98/151/78 
f 93/145/79 98/151/79 104/158/79 
f 104/158/79 99/152/79 93/145/79 
s 1
f 104/158/30 103/157/30 102/156/30 
f 102/156/30 101/155/30 100/154/30 
f 104/158/30 102/156/30 100/154/30 
f 99/152/30 104/158/30 100/154/30 
s off
f 52/67/80 51/66/80 105/159/80 
f 105/159/80 106/160/80 52/67/80 
f 51/71/81 54/70/81 107/161/81 
f 107/161/81 105/162/81 51/71/81 
f 54/70/82 56/73/82 108/163/82 
f 108/163/82 107/161/82 54/70/82 
f 56/73/83 58/75/83 109/164/83 
f 109/164/83 108/163/83 56/73/83 
f 58/75/84 60/77/84 110/165/84 
f 110/165/84 109/164/84 58/75/84 
f 60/77/85 52/67/85 106/160/85 
f 106/160/85 110/165/85 60/77/85 
s 2
f 107/161/9 108/163/9 109/164/9 
f 109/164/9 110/165/9 106/160/9 
f 107/161/9 109/164/9 106/160/9 
f 105/159/9 107/161/9 106/160/9 
# 216 faces

