# 3ds Max Wavefront OBJ Exporter v0.99 - (c)2007 guruware
# File Created: 13.05.2025 00:16:49

mtllib ?????2.mtl

#
# object Box001
#

v  20.9441 -11.4138 34.4257
v  20.9441 -11.4138 16.0840
v  9.7642 -84.8880 2.8348
v  9.7642 -78.8278 13.9042
v  10.4222 -78.8278 13.9042
v  11.3662 -84.8880 2.8348
v  26.8608 -11.4138 10.6333
v  21.6021 -11.4138 34.4257
v  6.8250 3.6527 53.4961
v  28.3115 3.6527 46.6183
v  17.1316 55.2401 35.0629
v  6.8250 60.0617 40.7353
v  6.8250 -11.4138 53.4961
v  6.8249 -91.4532 25.0912
v  17.1315 -86.4087 20.8812
v  28.3115 -11.4138 46.6513
v  9.7642 48.8597 25.2374
v  20.9441 3.6527 34.4257
v  6.8249 -99.4236 10.5327
v  10.4222 48.8597 25.2374
v  28.8177 64.1237 -8.0750
v  21.9180 60.7568 17.3943
v  15.6809 48.8597 10.6333
v  22.4729 48.8597 -8.2292
v  9.7642 48.8597 16.0840
v  20.9441 3.6527 16.0840
v  21.6021 3.6527 34.4257
v  20.9441 -11.4138 -7.8274
v  9.7642 -91.1822 -8.6620
v  12.3480 -91.1913 -8.6786
v  33.6582 -11.3348 -8.2273
v  6.8250 66.6484 21.2976
v  18.0751 -93.6714 7.6357
v  6.8249 -109.9321 -8.6620
v  9.7642 48.8597 -7.8274
v  20.9441 3.6527 -7.8274
v  26.8608 3.6527 10.6333
v  26.0211 3.2514 34.4257
v  26.0211 -11.8150 34.4257
v  36.8527 -11.8150 10.6333
v  36.8527 3.2514 10.6333
v  -13.6686 3.6527 34.4257
v  -13.6686 -11.4138 34.4257
v  -13.6686 3.6527 16.0840
v  -13.6686 -11.4138 16.0840
v  -31.5300 3.6527 14.1566
v  -31.5300 -11.4138 14.1566
v  -23.8250 3.6527 7.1772
v  -23.8250 -11.4138 7.1772
v  -41.4609 3.6527 -14.6209
v  -41.4609 -11.4138 -14.6209
v  -33.7559 3.6527 -14.6209
v  -33.7559 -11.4138 -14.6209
v  6.8250 71.5578 -7.8274
v  19.2369 -102.6153 -8.6757
v  33.6566 3.6176 -8.2278
v  43.6501 -11.7361 -8.2273
v  43.6486 3.2164 -8.2278
v  9.7642 -78.8278 -43.1461
v  9.7642 -84.8880 -32.0767
v  20.9441 -11.4138 -45.3259
v  20.9441 -11.4138 -63.6676
v  21.6021 -11.4138 -63.6676
v  26.8608 -11.4138 -39.8752
v  11.3662 -84.8880 -32.0767
v  10.4222 -78.8278 -43.1461
v  6.8250 3.6527 -82.7381
v  6.8250 60.0617 -69.9772
v  17.1316 55.2401 -64.3048
v  28.3115 3.6527 -75.8602
v  6.8249 -91.4532 -54.3331
v  6.8250 -11.4138 -82.7381
v  28.3115 -11.4138 -75.8932
v  17.1315 -86.4087 -50.1231
v  9.7642 48.8597 -54.4793
v  20.9441 3.6527 -63.6676
v  6.8249 -99.4236 -39.7746
v  10.4222 48.8597 -54.4793
v  21.9180 60.7568 -46.6362
v  28.8177 64.1237 -21.1669
v  15.6809 48.8597 -39.8752
v  22.4729 48.8597 -21.0127
v  20.9441 3.6527 -45.3259
v  9.7642 48.8597 -45.3259
v  21.6021 3.6527 -63.6676
v  9.7642 -91.1822 -20.5799
v  20.9441 -11.4138 -21.4145
v  33.6582 -11.3348 -21.0146
v  12.3480 -91.1913 -20.5633
v  6.8250 66.6484 -50.5395
v  18.0751 -93.6714 -36.8776
v  6.8249 -109.9321 -20.5799
v  20.9441 3.6527 -21.4145
v  9.7642 48.8597 -21.4145
v  26.8608 3.6527 -39.8752
v  26.0211 3.2514 -63.6676
v  36.8527 3.2514 -39.8752
v  36.8527 -11.8150 -39.8752
v  26.0211 -11.8150 -63.6676
v  -13.6686 -11.4138 -63.6676
v  -13.6686 3.6527 -63.6676
v  -13.6686 3.6527 -45.3259
v  -13.6686 -11.4138 -45.3259
v  -31.5300 -11.4138 -43.3985
v  -31.5300 3.6527 -43.3985
v  -23.8250 3.6527 -36.4191
v  -23.8250 -11.4138 -36.4191
v  6.8250 71.5578 -21.4145
v  19.2369 -102.6153 -20.5662
v  33.6566 3.6176 -21.0141
v  43.6501 -11.7361 -21.0146
v  43.6486 3.2164 -21.0141
v  18.1376 -87.8843 -8.6786
v  18.1376 -87.8843 -20.5633
v  29.5600 49.2280 -8.2292
v  29.5600 49.2280 -21.0127
# 116 vertices

vn -0.8962 0.1259 -0.4254
vn -0.9949 0.1005 0.0000
vn -0.9851 0.1537 -0.0770
vn -0.9806 0.1779 -0.0827
vn 0.9533 -0.2225 0.2043
vn 0.9444 -0.2413 0.2231
vn 0.9365 -0.2255 0.2685
vn 0.9521 -0.2220 0.2104
vn 0.3205 0.1274 0.9386
vn 0.3018 0.1305 0.9444
vn 0.4924 0.2040 0.8461
vn 0.5391 0.1858 0.8215
vn 0.3091 -0.1687 0.9360
vn 0.4810 -0.2932 0.8262
vn 0.4548 -0.3019 0.8379
vn 0.2989 -0.1743 0.9382
vn -0.9814 -0.1672 -0.0945
vn -0.8850 -0.1888 -0.4256
vn -0.8285 -0.1176 -0.5475
vn -0.9883 -0.0994 -0.1156
vn -0.9760 0.1715 -0.1340
vn -0.8001 0.0940 -0.5924
vn -0.9844 0.1543 -0.0845
vn 0.8721 0.0207 -0.4889
vn 0.8764 0.0148 -0.4813
vn 0.7754 0.0672 -0.6279
vn 0.7569 0.0722 -0.6495
vn 0.7653 -0.6395 0.0726
vn 0.9007 -0.4155 0.1269
vn 0.7433 -0.6638 0.0827
vn 0.7097 -0.7039 -0.0275
vn 0.8752 -0.3670 0.3151
vn 0.9101 -0.3800 0.1651
vn -0.9805 -0.1962 -0.0045
vn -0.9869 -0.1611 0.0000
vn 0.8206 0.0557 -0.5688
vn 0.8111 0.0451 -0.5832
vn 0.8700 0.0460 -0.4909
vn 0.8745 0.0637 -0.4809
vn -0.9974 0.0723 -0.0019
vn -0.9881 0.1481 -0.0407
vn 0.9425 -0.2527 0.2187
vn 0.9195 -0.2308 0.3181
vn 0.4325 0.8650 0.2542
vn 0.5268 0.8051 0.2728
vn 0.4842 0.8166 0.3142
vn 0.3862 0.8875 0.2515
vn 0.5160 -0.7449 0.4229
vn 0.5303 -0.7437 0.4071
vn 0.4960 -0.7527 0.4329
vn 0.4959 -0.7461 0.4444
vn -0.9874 0.1548 -0.0344
vn -0.9859 -0.1637 -0.0334
vn 0.8259 0.5189 -0.2205
vn 0.8234 0.5202 -0.2266
vn 0.8294 0.5148 -0.2169
vn 0.8291 0.5172 -0.2124
vn -0.9828 -0.1845 0.0000
vn -0.9927 -0.1209 0.0000
vn 0.9248 0.2413 0.2940
vn 0.9390 0.2744 0.2075
vn 0.9270 0.2453 0.2839
vn 0.9164 0.2266 0.3300
vn 0.9101 -0.0000 0.4143
vn 0.9262 -0.0000 0.3771
vn 0.9262 0.0000 0.3770
vn 0.0000 0.0000 1.0000
vn 0.0000 1.0000 -0.0000
vn 0.0000 -1.0000 -0.0000
vn 0.0000 0.0000 -1.0000
vn -0.7503 0.0000 0.6611
vn 0.6593 0.0000 -0.7518
vn -0.9453 0.0000 0.3262
vn -1.0000 0.0000 -0.0000
vn 0.9100 0.0000 -0.4146
vn 1.0000 0.0000 -0.0000
vn 0.3335 0.9381 0.0936
vn 0.3197 0.9426 0.0964
vn 0.5014 -0.8328 0.2345
vn 0.4977 -0.8440 0.2000
vn -0.9910 -0.1339 -0.0053
vn 0.8483 0.5152 -0.1222
vn 0.8529 0.5143 -0.0904
vn 0.9164 0.2266 0.3299
vn 0.9165 0.2266 0.3298
vn 0.9873 -0.1082 0.1162
vn 0.9882 0.0999 0.1157
vn -0.9806 0.1404 0.1370
vn -0.9854 0.1512 0.0786
vn -0.9944 0.1056 0.0028
vn -0.8831 0.1663 0.4387
vn 0.9521 -0.2228 -0.2096
vn 0.9362 -0.2334 -0.2629
vn 0.9536 -0.2220 -0.2036
vn 0.9545 -0.2197 -0.2017
vn 0.3205 0.1274 -0.9386
vn 0.5391 0.1858 -0.8215
vn 0.4924 0.2040 -0.8461
vn 0.3018 0.1305 -0.9444
vn 0.4550 -0.3435 -0.8216
vn 0.3002 -0.1565 -0.9409
vn 0.3090 -0.1610 -0.9373
vn 0.4953 -0.3474 -0.7962
vn -0.9814 -0.1672 0.0945
vn -0.9883 -0.0994 0.1156
vn -0.8285 -0.1176 0.5475
vn -0.8850 -0.1888 0.4256
vn -0.8149 0.1234 0.5664
vn -0.9850 0.1151 0.1289
vn -0.9844 0.1543 0.0845
vn 0.7809 0.0928 0.6177
vn 0.7700 0.1017 0.6299
vn 0.8717 0.0057 0.4900
vn 0.8767 0.0006 0.4811
vn 0.7653 -0.6395 -0.0726
vn 0.7097 -0.7039 0.0275
vn 0.7433 -0.6638 -0.0827
vn 0.9007 -0.4155 -0.1269
vn 0.8752 -0.3670 -0.3151
vn 0.9101 -0.3800 -0.1651
vn -0.9869 -0.1611 -0.0000
vn -0.9805 -0.1962 0.0045
vn 0.8206 0.0557 0.5688
vn 0.8745 0.0637 0.4809
vn 0.8700 0.0460 0.4909
vn 0.8111 0.0451 0.5832
vn -0.9881 0.1481 0.0407
vn -0.9974 0.0723 0.0019
vn 0.9123 -0.2453 -0.3278
vn 0.9459 -0.2279 -0.2308
vn 0.4325 0.8650 -0.2542
vn 0.3862 0.8875 -0.2515
vn 0.4842 0.8166 -0.3142
vn 0.5268 0.8051 -0.2728
vn 0.5160 -0.7449 -0.4229
vn 0.4959 -0.7461 -0.4444
vn 0.4960 -0.7527 -0.4329
vn 0.5303 -0.7437 -0.4071
vn -0.9874 0.1548 0.0344
vn -0.9859 -0.1637 0.0334
vn 0.8259 0.5189 0.2205
vn 0.8291 0.5172 0.2124
vn 0.8294 0.5148 0.2169
vn 0.8234 0.5202 0.2266
vn -0.9927 -0.1209 -0.0000
vn -0.9828 -0.1845 -0.0000
vn 0.9248 0.2413 -0.2940
vn 0.9164 0.2266 -0.3300
vn 0.9270 0.2453 -0.2839
vn 0.9390 0.2744 -0.2075
vn 0.9101 -0.0000 -0.4143
vn 0.9262 0.0000 -0.3770
vn 0.9262 -0.0000 -0.3771
vn -0.7503 0.0000 -0.6611
vn 0.6593 0.0000 0.7518
vn -0.9453 0.0000 -0.3262
vn 0.9100 0.0000 0.4146
vn 0.3335 0.9381 -0.0936
vn 0.3197 0.9426 -0.0964
vn 0.5014 -0.8328 -0.2345
vn 0.4977 -0.8440 -0.2000
vn -0.9910 -0.1339 0.0053
vn 0.8483 0.5152 0.1222
vn 0.8529 0.5143 0.0904
vn 0.9164 0.2266 -0.3299
vn 0.9165 0.2266 -0.3298
vn 0.9873 -0.1082 -0.1162
vn 0.9882 0.0999 -0.1157
vn 0.9482 -0.3177 -0.0000
vn 0.9562 0.2928 -0.0000
vn -0.0401 -0.9992 -0.0089
vn -0.0903 -0.9951 -0.0411
vn -0.0401 -0.9990 -0.0186
vn 0.0038 -0.0067 1.0000
vn -0.0002 -0.0058 1.0000
vn 0.4960 -0.8683 -0.0000
vn -0.0002 -0.0056 -1.0000
vn 0.0042 -0.0073 -1.0000
vn -0.0401 -0.9990 0.0186
vn -0.0904 -0.9957 0.0200
vn -0.0401 -0.9990 0.0183
vn 0.0401 0.9992 -0.0089
vn 0.0903 0.9951 -0.0411
vn 0.0401 0.9991 -0.0126
vn -0.0000 0.0000 -1.0000
vn -0.0519 0.9987 -0.0000
vn -0.0000 0.0000 1.0000
vn 0.0401 0.9991 0.0126
vn 0.0904 0.9957 0.0200
vn 0.0401 0.9990 0.0183
# 190 vertex normals

vt 0.6914 0.1971 0.0000
vt 0.7241 0.2386 0.0000
vt 0.5096 0.2933 0.0000
vt 0.5198 0.2612 0.0000
vt 0.8820 0.7331 0.0000
vt 0.8983 0.7683 0.0000
vt 0.6799 0.7384 0.0000
vt 0.6684 0.6691 0.0000
vt 0.2525 0.8160 0.0000
vt 0.3037 0.8521 0.0000
vt 0.2046 0.9651 0.0000
vt 0.1686 0.9541 0.0000
vt 0.2756 0.7854 0.0000
vt 0.4317 0.6055 0.0000
vt 0.4515 0.6354 0.0000
vt 0.3264 0.8219 0.0000
vt 0.1355 0.9064 0.0000
vt 0.1997 0.7763 0.0000
vt 0.2301 0.7394 0.0000
vt 0.3830 0.5937 0.0000
vt 0.3832 0.5550 0.0000
vt 0.4312 0.5604 0.0000
vt 0.3606 0.8372 0.0000
vt 0.4726 0.6640 0.0000
vt 0.2880 0.3005 0.0000
vt 0.2642 0.4103 0.0000
vt 0.2533 0.3388 0.0000
vt 0.2487 0.2849 0.0000
vt 0.2974 0.3448 0.0000
vt 0.3069 0.4062 0.0000
vt 0.9167 0.2560 0.0000
vt 0.9087 0.2761 0.0000
vt 0.7744 0.2411 0.0000
vt 0.8192 0.2147 0.0000
vt 0.2404 0.9839 0.0000
vt 0.3303 0.8788 0.0000
vt 0.7243 0.3194 0.0000
vt 0.4930 0.3257 0.0000
vt 0.9138 0.8062 0.0000
vt 0.6809 0.7915 0.0000
vt 0.2070 0.3280 0.0000
vt 0.2122 0.2709 0.0000
vt 0.4699 0.6008 0.0000
vt 0.4705 0.5578 0.0000
vt 0.3838 0.5126 0.0000
vt 0.4326 0.5065 0.0000
vt 0.1614 0.3034 0.0000
vt 0.1520 0.3306 0.0000
vt 0.5062 0.5924 0.0000
vt 0.5052 0.5549 0.0000
vt 0.8920 0.3266 0.0000
vt 0.7670 0.3199 0.0000
vt 0.4579 0.6907 0.0000
vt 0.6075 0.6684 0.0000
vt 0.5920 0.7378 0.0000
vt 0.4600 0.7395 0.0000
vt 0.6154 0.6793 0.0000
vt 0.6592 0.6790 0.0000
vt 0.6573 0.7521 0.0000
vt 0.6175 0.7518 0.0000
vt 0.1254 0.7103 0.0000
vt 0.1534 0.6773 0.0000
vt 0.7889 0.1254 0.0000
vt 0.8390 0.1445 0.0000
vt 0.7006 0.1286 0.0000
vt 0.7442 0.1246 0.0000
vt 0.0664 0.6603 0.0000
vt 0.0943 0.6274 0.0000
vt 0.7886 0.0843 0.0000
vt 0.8197 0.0822 0.0000
vt 0.7176 0.0812 0.0000
vt 0.7456 0.0833 0.0000
vt 0.0000 0.6039 0.0000
vt 0.0279 0.5710 0.0000
vt 0.7880 0.0128 0.0000
vt 0.8073 0.0017 0.0000
vt 0.7291 0.0000 0.0000
vt 0.7480 0.0110 0.0000
vt 0.2009 0.4085 0.0000
vt 0.4690 0.5091 0.0000
vt 0.1386 0.4050 0.0000
vt 0.5041 0.5136 0.0000
vt 0.4657 0.8024 0.0000
vt 0.5950 0.7916 0.0000
vt 0.6613 0.8148 0.0000
vt 0.6145 0.8138 0.0000
vt 0.5236 0.4223 0.0000
vt 0.5101 0.3911 0.0000
vt 0.7248 0.4457 0.0000
vt 0.6886 0.4867 0.0000
vt 0.6693 1.0000 0.0000
vt 0.6811 0.9290 0.0000
vt 0.8975 0.8976 0.0000
vt 0.8800 0.9313 0.0000
vt 0.2551 0.1679 0.0000
vt 0.1725 0.0290 0.0000
vt 0.2087 0.0184 0.0000
vt 0.3066 0.1325 0.0000
vt 0.4353 0.3789 0.0000
vt 0.2778 0.1991 0.0000
vt 0.3292 0.1631 0.0000
vt 0.4546 0.3485 0.0000
vt 0.1390 0.0764 0.0000
vt 0.2019 0.2069 0.0000
vt 0.3859 0.3901 0.0000
vt 0.2321 0.2437 0.0000
vt 0.4334 0.4244 0.0000
vt 0.3856 0.4283 0.0000
vt 0.4760 0.3194 0.0000
vt 0.3630 0.1480 0.0000
vt 0.2882 0.5538 0.0000
vt 0.2487 0.5694 0.0000
vt 0.2532 0.5155 0.0000
vt 0.2635 0.4440 0.0000
vt 0.2975 0.5096 0.0000
vt 0.3077 0.4482 0.0000
vt 0.9183 0.4274 0.0000
vt 0.8197 0.4702 0.0000
vt 0.7749 0.4438 0.0000
vt 0.9101 0.4072 0.0000
vt 0.2446 0.0000 0.0000
vt 0.3334 0.1061 0.0000
vt 0.4929 0.3589 0.0000
vt 0.7247 0.3649 0.0000
vt 0.6787 0.8751 0.0000
vt 0.9129 0.8610 0.0000
vt 0.2071 0.5263 0.0000
vt 0.2121 0.5834 0.0000
vt 0.4726 0.3847 0.0000
vt 0.4719 0.4277 0.0000
vt 0.4327 0.4788 0.0000
vt 0.3862 0.4703 0.0000
vt 0.1615 0.5508 0.0000
vt 0.1523 0.5236 0.0000
vt 0.5083 0.3936 0.0000
vt 0.5063 0.4311 0.0000
vt 0.7666 0.3649 0.0000
vt 0.8934 0.3568 0.0000
vt 0.4574 0.9752 0.0000
vt 0.4589 0.9265 0.0000
vt 0.5923 0.9284 0.0000
vt 0.6068 0.9976 0.0000
vt 0.6167 0.9879 0.0000
vt 0.6159 0.9148 0.0000
vt 0.6559 0.9152 0.0000
vt 0.6611 0.9887 0.0000
vt 0.1550 0.3055 0.0000
vt 0.1272 0.2723 0.0000
vt 0.8382 0.5407 0.0000
vt 0.7878 0.5596 0.0000
vt 0.7427 0.5602 0.0000
vt 0.6986 0.5558 0.0000
vt 0.0957 0.3551 0.0000
vt 0.0680 0.3221 0.0000
vt 0.8184 0.6029 0.0000
vt 0.7872 0.6008 0.0000
vt 0.7441 0.6016 0.0000
vt 0.7161 0.6036 0.0000
vt 0.0290 0.4111 0.0000
vt 0.0013 0.3780 0.0000
vt 0.8057 0.6834 0.0000
vt 0.7864 0.6722 0.0000
vt 0.7463 0.6740 0.0000
vt 0.7274 0.6849 0.0000
vt 0.2007 0.4458 0.0000
vt 0.4693 0.4768 0.0000
vt 0.1394 0.4493 0.0000
vt 0.5034 0.4723 0.0000
vt 0.4632 0.8630 0.0000
vt 0.5931 0.8747 0.0000
vt 0.6609 0.8517 0.0000
vt 0.6152 0.8526 0.0000
vt 0.8937 0.8167 0.0000
vt 0.8946 0.8498 0.0000
vt 0.4805 0.8170 0.0000
vt 0.4804 0.8500 0.0000
# 176 texture coords

o Box001
g Box001
usemtl wire_113135006
s 1
f 1/1/1 2/2/2 3/3/3 
f 3/3/3 4/4/4 1/1/1 
f 5/5/5 6/6/6 7/7/7 
f 7/7/7 8/8/8 5/5/5 
s 2
f 9/9/9 10/10/10 11/11/11 
f 11/11/11 12/12/12 9/9/9 
f 13/13/13 14/14/14 15/15/15 
f 15/15/15 16/16/16 13/13/13 
s 1
f 17/17/17 18/18/18 9/9/19 
f 9/9/19 12/12/20 17/17/17 
f 14/14/21 13/13/22 1/19/1 
f 1/19/1 4/20/4 14/14/21 
f 4/20/4 3/21/3 19/22/23 
f 19/22/23 14/14/21 4/20/4 
s 4
f 8/23/24 16/16/25 15/15/26 
f 15/15/26 5/24/27 8/23/24 
s 8
f 20/25/28 21/26/29 22/27/30 
f 22/27/30 11/28/31 20/25/28 
f 23/29/32 24/30/33 21/26/29 
f 21/26/29 20/25/28 23/29/32 
s 1
f 17/31/17 25/32/34 26/33/35 
f 26/33/35 18/34/18 17/31/17 
s 2
f 13/13/13 16/16/16 10/10/10 
f 10/10/10 9/9/9 13/13/13 
s 1
f 18/18/18 1/19/1 13/13/22 
f 13/13/22 9/9/19 18/18/18 
s 4
f 20/35/36 11/11/37 10/10/38 
f 10/10/38 27/36/39 20/35/36 
f 27/36/39 10/10/38 16/16/25 
f 16/16/25 8/23/24 27/36/39 
s 1
f 28/37/40 29/38/41 3/3/3 
f 3/3/3 2/2/2 28/37/40 
f 6/6/6 30/39/42 31/40/43 
f 31/40/43 7/7/7 6/6/6 
s 16
f 32/41/44 12/42/45 11/28/46 
f 11/28/46 22/27/47 32/41/44 
s 8
f 15/43/48 14/14/49 19/22/50 
f 19/22/50 33/44/51 15/43/48 
s 1
f 29/45/41 34/46/52 19/22/23 
f 19/22/23 3/21/3 29/45/41 
f 17/47/17 12/42/20 32/41/53 
f 32/41/53 25/48/34 17/47/17 
s 16
f 5/49/54 15/43/55 33/44/56 
f 33/44/56 6/50/57 5/49/54 
s 1
f 35/51/58 36/52/59 26/33/35 
f 26/33/35 25/32/34 35/51/58 
f 20/53/60 27/54/61 37/55/62 
f 37/55/62 23/56/63 20/53/60 
f 36/52/59 28/37/40 2/2/2 
f 2/2/2 26/33/35 36/52/59 
f 38/57/64 39/58/64 40/59/65 
f 40/59/65 41/60/66 38/57/64 
s 2
f 1/19/67 18/18/67 42/61/67 
f 42/61/67 43/62/67 1/19/67 
s 4
f 18/34/68 26/33/68 44/63/68 
f 44/63/68 42/64/68 18/34/68 
f 2/2/69 1/1/69 43/65/69 
f 43/65/69 45/66/69 2/2/69 
s 2
f 26/33/70 2/2/70 45/66/70 
f 45/66/70 44/63/70 26/33/70 
s 1
f 43/62/71 42/61/71 46/67/71 
f 46/67/71 47/68/71 43/62/71 
s 4
f 42/64/68 44/63/68 48/69/68 
f 48/69/68 46/70/68 42/64/68 
f 45/66/69 43/65/69 47/71/69 
f 47/71/69 49/72/69 45/66/69 
s 1
f 44/63/72 45/66/72 49/72/72 
f 49/72/72 48/69/72 44/63/72 
s 2
f 46/67/73 50/73/74 51/74/74 
f 51/74/74 47/68/73 46/67/73 
s 4
f 48/69/68 52/75/68 50/76/68 
f 50/76/68 46/70/68 48/69/68 
f 49/72/69 47/71/69 51/77/69 
f 51/77/69 53/78/69 49/72/69 
s 2
f 49/72/75 53/78/76 52/75/76 
f 52/75/76 48/69/75 49/72/75 
s 16
f 54/79/77 32/41/44 22/27/47 
f 22/27/47 21/26/78 54/79/77 
s 8
f 55/80/79 33/44/51 19/22/50 
f 19/22/50 34/46/80 55/80/79 
s 1
f 25/48/34 32/41/53 54/79/81 
f 54/79/81 35/81/58 25/48/34 
s 16
f 30/82/82 6/50/57 33/44/56 
f 33/44/56 55/80/83 30/82/82 
s 1
f 24/83/84 23/56/63 37/55/62 
f 37/55/62 56/84/85 24/83/84 
f 41/60/66 40/59/65 57/85/86 
f 57/85/86 58/86/87 41/60/66 
f 59/87/88 60/88/89 61/89/90 
f 61/89/90 62/90/91 59/87/88 
f 63/91/92 64/92/93 65/93/94 
f 65/93/94 66/94/95 63/91/92 
s 2
f 67/95/96 68/96/97 69/97/98 
f 69/97/98 70/98/99 67/95/96 
f 71/99/100 72/100/101 73/101/102 
f 73/101/102 74/102/103 71/99/100 
s 1
f 75/103/104 68/96/105 67/95/106 
f 67/95/106 76/104/107 75/103/104 
f 72/100/108 71/99/109 59/105/88 
f 59/105/88 62/106/91 72/100/108 
f 59/105/88 71/99/109 77/107/110 
f 77/107/110 60/108/89 59/105/88 
s 4
f 66/109/111 74/102/112 73/101/113 
f 73/101/113 63/110/114 66/109/111 
s 8
f 78/111/115 69/112/116 79/113/117 
f 79/113/117 80/114/118 78/111/115 
f 81/115/119 78/111/115 80/114/118 
f 80/114/118 82/116/120 81/115/119 
s 1
f 75/117/104 76/118/107 83/119/121 
f 83/119/121 84/120/122 75/117/104 
s 2
f 72/100/101 67/95/96 70/98/99 
f 70/98/99 73/101/102 72/100/101 
s 1
f 76/104/107 67/95/106 72/100/108 
f 72/100/108 62/106/91 76/104/107 
s 4
f 78/121/123 85/122/124 70/98/125 
f 70/98/125 69/97/126 78/121/123 
f 85/122/124 63/110/114 73/101/113 
f 73/101/113 70/98/125 85/122/124 
s 1
f 60/88/89 86/123/127 87/124/128 
f 87/124/128 61/89/90 60/88/89 
f 64/92/93 88/125/129 89/126/130 
f 89/126/130 65/93/94 64/92/93 
s 16
f 90/127/131 79/113/132 69/112/133 
f 69/112/133 68/128/134 90/127/131 
s 8
f 74/129/135 91/130/136 77/107/137 
f 77/107/137 71/99/138 74/129/135 
s 1
f 77/107/110 92/131/139 86/132/127 
f 86/132/127 60/108/89 77/107/110 
f 75/133/104 84/134/122 90/127/140 
f 90/127/140 68/128/105 75/133/104 
s 16
f 66/135/141 65/136/142 91/130/143 
f 91/130/143 74/129/144 66/135/141 
s 1
f 83/119/121 93/137/145 94/138/146 
f 94/138/146 84/120/122 83/119/121 
f 78/139/147 81/140/148 95/141/149 
f 95/141/149 85/142/150 78/139/147 
f 61/89/90 87/124/128 93/137/145 
f 93/137/145 83/119/121 61/89/90 
f 96/143/151 97/144/152 98/145/153 
f 98/145/153 99/146/151 96/143/151 
s 2
f 62/106/70 100/147/70 101/148/70 
f 101/148/70 76/104/70 62/106/70 
s 4
f 76/118/68 101/149/68 102/150/68 
f 102/150/68 83/119/68 76/118/68 
f 61/89/69 103/151/69 100/152/69 
f 100/152/69 62/90/69 61/89/69 
s 2
f 83/119/67 102/150/67 103/151/67 
f 103/151/67 61/89/67 83/119/67 
s 1
f 100/147/154 104/153/154 105/154/154 
f 105/154/154 101/148/154 100/147/154 
s 4
f 101/149/68 105/155/68 106/156/68 
f 106/156/68 102/150/68 101/149/68 
f 103/151/69 107/157/69 104/158/69 
f 104/158/69 100/152/69 103/151/69 
s 1
f 102/150/155 106/156/155 107/157/155 
f 107/157/155 103/151/155 102/150/155 
s 2
f 105/154/156 104/153/156 51/159/74 
f 51/159/74 50/160/74 105/154/156 
s 4
f 106/156/68 105/155/68 50/161/68 
f 50/161/68 52/162/68 106/156/68 
f 107/157/69 53/163/69 51/164/69 
f 51/164/69 104/158/69 107/157/69 
s 2
f 107/157/157 106/156/157 52/162/76 
f 52/162/76 53/163/76 107/157/157 
s 16
f 108/165/158 80/114/159 79/113/132 
f 79/113/132 90/127/131 108/165/158 
s 8
f 109/166/160 92/131/161 77/107/137 
f 77/107/137 91/130/136 109/166/160 
s 1
f 108/165/162 90/127/140 84/134/122 
f 84/134/122 94/167/146 108/165/162 
s 16
f 89/168/163 109/166/164 91/130/143 
f 91/130/143 65/136/142 89/168/163 
s 1
f 82/169/165 110/170/166 95/141/149 
f 95/141/149 81/140/148 82/169/165 
f 111/171/167 98/145/153 97/144/152 
f 97/144/152 112/172/168 111/171/167 
s 8
f 21/26/29 24/30/33 82/116/120 
f 82/116/120 80/114/118 21/26/29 
s 1
f 87/124/128 86/123/127 29/38/41 
f 29/38/41 28/37/40 87/124/128 
f 113/173/169 114/174/169 111/171/167 
f 111/171/167 57/85/86 113/173/169 
f 29/45/41 86/132/127 92/131/139 
f 92/131/139 34/46/52 29/45/41 
f 35/51/58 94/138/146 93/137/145 
f 93/137/145 36/52/59 35/51/58 
f 28/37/40 36/52/59 93/137/145 
f 93/137/145 87/124/128 28/37/40 
s 16
f 54/79/77 21/26/78 80/114/159 
f 80/114/159 108/165/158 54/79/77 
s 8
f 55/80/79 34/46/80 92/131/161 
f 92/131/161 109/166/160 55/80/79 
s 1
f 35/81/58 54/79/81 108/165/162 
f 108/165/162 94/167/146 35/81/58 
s 16
f 30/82/82 55/80/83 109/166/164 
f 109/166/164 89/168/163 30/82/82 
s 1
f 115/175/170 58/86/87 112/172/168 
f 112/172/168 116/176/170 115/175/170 
f 58/86/87 57/85/86 111/171/167 
f 111/171/167 112/172/168 58/86/87 
s off
f 8/8/171 7/7/171 40/59/171 
f 40/59/172 39/58/172 8/8/172 
f 7/7/173 31/40/173 57/85/173 
f 57/85/173 40/59/173 7/7/173 
f 31/40/174 30/39/174 113/173/174 
f 113/173/175 57/85/175 31/40/175 
f 30/39/176 89/126/176 114/174/176 
f 114/174/176 113/173/176 30/39/176 
f 89/126/177 88/125/177 111/171/177 
f 111/171/178 114/174/178 89/126/178 
f 88/125/179 64/92/179 98/145/179 
f 98/145/179 111/171/179 88/125/179 
f 64/92/180 63/91/180 99/146/180 
f 99/146/181 98/145/181 64/92/181 
f 63/91/70 85/142/70 96/143/70 
f 96/143/70 99/146/70 63/91/70 
f 85/142/182 95/141/182 97/144/182 
f 97/144/183 96/143/183 85/142/183 
f 95/141/184 110/170/184 112/172/184 
f 112/172/184 97/144/184 95/141/184 
f 110/170/185 82/169/185 116/176/185 
f 116/176/70 112/172/70 110/170/70 
f 82/169/186 24/83/186 115/175/186 
f 115/175/186 116/176/186 82/169/186 
f 24/83/67 56/84/67 58/86/67 
f 58/86/187 115/175/187 24/83/187 
f 56/84/188 37/55/188 41/60/188 
f 41/60/188 58/86/188 56/84/188 
f 37/55/189 27/54/189 38/57/189 
f 38/57/190 41/60/190 37/55/190 
f 27/54/67 8/8/67 39/58/67 
f 39/58/67 38/57/67 27/54/67 
# 232 faces

