# 3ds Max Wavefront OBJ Exporter v0.99 - (c)2007 guruware
# File Created: 08.06.2025 16:21:50

mtllib fire.mtl

#
# object Plane001
#

v  35.4666 -4.8729 -0.0000
v  1.2915 9.9981 -0.0000
v  -22.4673 -37.1369 -0.0000
v  28.8795 -37.1369 -0.0000
v  -31.7334 -26.1079 -0.0000
v  -31.7334 24.3686 0.0000
v  21.5691 49.2588 0.0000
v  1.2915 78.5554 0.0000
v  -18.9861 55.6989 0.0000
v  -22.1167 -4.8730 23.3361
v  2.0487 9.9981 -0.8293
v  18.8487 -37.1369 -17.6293
v  -17.4590 -37.1369 18.6784
v  25.4008 -26.1079 -24.1815
v  25.4008 24.3686 -24.1815
v  -12.2898 49.2588 13.5091
v  2.0487 78.5554 -0.8293
v  16.3872 55.6989 -15.1678
v  1.2194 -4.8730 -33.0022
v  1.2194 9.9981 1.1729
v  1.2194 -37.1369 24.9316
v  1.2194 -37.1369 -26.4152
v  1.2194 -26.1079 34.1977
v  1.2194 24.3686 34.1977
v  1.2194 49.2588 -19.1048
v  1.2194 78.5554 1.1729
v  1.2194 55.6989 21.4505
v  -22.1167 -4.8729 -23.3361
v  2.0487 9.9981 0.8293
v  18.8487 -37.1369 17.6293
v  -17.4590 -37.1369 -18.6783
v  25.4008 -26.1079 24.1815
v  25.4008 24.3686 24.1815
v  -12.2898 49.2588 -13.5091
v  2.0487 78.5554 0.8293
v  16.3872 55.6989 15.1678
# 36 vertices

vn 0.0000 -0.0000 1.0000
vn -0.7071 -0.0000 -0.7071
vn 1.0000 -0.0000 -0.0000
vn 0.7071 -0.0000 -0.7071
# 4 vertex normals

vt 0.7396 0.2931 0.0000
vt 0.4915 0.3858 0.0000
vt 0.3190 0.0918 0.0000
vt 0.6918 0.0918 0.0000
vt 0.2517 0.1606 0.0000
vt 0.2517 0.4754 0.0000
vt 0.6387 0.6307 0.0000
vt 0.4915 0.8134 0.0000
vt 0.3442 0.6708 0.0000
# 9 texture coords

o Plane001
g Plane001
usemtl Material__25
s 1
f 1/1/1 2/2/1 3/3/1 
f 3/3/1 4/4/1 1/1/1 
f 5/5/1 3/3/1 2/2/1 
f 2/2/1 6/6/1 5/5/1 
f 7/7/1 8/8/1 2/2/1 
f 2/2/1 1/1/1 7/7/1 
f 2/2/1 8/8/1 9/9/1 
f 9/9/1 6/6/1 2/2/1 
f 10/1/2 11/2/2 12/3/2 
f 12/3/2 13/4/2 10/1/2 
f 14/5/2 12/3/2 11/2/2 
f 11/2/2 15/6/2 14/5/2 
f 16/7/2 17/8/2 11/2/2 
f 11/2/2 10/1/2 16/7/2 
f 11/2/2 17/8/2 18/9/2 
f 18/9/2 15/6/2 11/2/2 
f 19/1/3 20/2/3 21/3/3 
f 21/3/3 22/4/3 19/1/3 
f 23/5/3 21/3/3 20/2/3 
f 20/2/3 24/6/3 23/5/3 
f 25/7/3 26/8/3 20/2/3 
f 20/2/3 19/1/3 25/7/3 
f 20/2/3 26/8/3 27/9/3 
f 27/9/3 24/6/3 20/2/3 
f 28/1/4 29/2/4 30/3/4 
f 30/3/4 31/4/4 28/1/4 
f 32/5/4 30/3/4 29/2/4 
f 29/2/4 33/6/4 32/5/4 
f 34/7/4 35/8/4 29/2/4 
f 29/2/4 28/1/4 34/7/4 
f 29/2/4 35/8/4 36/9/4 
f 36/9/4 33/6/4 29/2/4 
# 32 faces

